# xmcd CD database file
#
# Track frame offsets:
#	150
#	23370
#	44092
#	77335
#	99865
#	119432
#	147720
#	176075
#	204305
#	231432
#
# Disc length: 3386 seconds
#
# Revision: 1
# Processed by: cddbd v1.5.2PL0 Copyright (c) Steve Scherf et al.
# Submitted via: CDex 1.51
#
DISCID=810d380a
DTITLE=Jeff Hamilton - From Studio 4, Cologne, Germany
DYEAR=2006
DGENRE=Jazz
TTITLE0=Yano
TTITLE1=I've Never Been In Love Before
TTITLE2=A Felicidade
TTITLE3=Lullaby Of The Leaves
TTITLE4=Too Close For Comfort
TTITLE5=So Many Stars
TTITLE6=Epistrophy
TTITLE7=Autumn Nocturne
TTITLE8=Moonglow
TTITLE9=2nd Street Samba
EXTD=YEAR: 2006
EXTT0=
EXTT1=
EXTT2=
EXTT3=
EXTT4=
EXTT5=
EXTT6=
EXTT7=
EXTT8=
EXTT9=
PLAYORDER=
